<svg viewBox="0 0 24 24" id="Layer_1" data-name="Layer 1" xmlns="http://www.w3.org/2000/svg" fill="#000000"><g id="SVGRepo_bgCarrier" stroke-width="0"></g><g id="SVGRepo_tracerCarrier" stroke-linecap="round" stroke-linejoin="round"></g><g id="SVGRepo_iconCarrier"><defs><style>.cls-1{fill:none;stroke:#c7191e;stroke-miterlimit:10;stroke-width:1.344;}</style></defs><path class="cls-1" d="M18.68,3.45h1.91A1.91,1.91,0,0,1,22.5,5.36V16.82a1.91,1.91,0,0,1-1.91,1.91H3.41A1.91,1.91,0,0,1,1.5,16.82V5.36A1.91,1.91,0,0,1,3.41,3.45H18.68Z"></path><line class="cls-1" x1="12" y1="22.55" x2="12" y2="18.73"></line><line class="cls-1" x1="16.77" y1="22.55" x2="7.23" y2="22.55"></line><path class="cls-1" d="M13.91,7.27,13,9.18H6.27L4.36,11.09,6.27,13H13l1,1.91h2.86a2.87,2.87,0,0,0,2.87-2.86V10.14a2.87,2.87,0,0,0-2.87-2.87Z"></path><line class="cls-1" x1="9.14" y1="11.09" x2="9.14" y2="13"></line><line class="cls-1" x1="16.77" y1="10.14" x2="16.77" y2="12.05"></line></g></svg>